<svg width="603" height="370" viewBox="0 0 603 370" fill="none" xmlns="http://www.w3.org/2000/svg">
<rect width="602.616" height="369.345" transform="translate(0.384277)" fill="#CA2E55"/>
<rect x="259.795" y="239.917" width="72.4638" height="12.0773" fill="#1B2021"/>
<rect x="275.496" y="262.26" width="42.2706" height="12.0773" fill="#1B2021"/>
<path d="M330.447 203.171C346.827 192.293 357.621 173.736 357.621 152.658C357.621 119.123 330.297 91.9695 296.631 91.9695C262.965 91.9695 235.64 119.123 235.64 152.658C235.64 173.736 246.435 192.293 262.814 203.171V224.82V228.443H266.438H326.824H330.447V224.82V203.171Z" stroke="#1B2021" stroke-width="7.24638"/>
<path d="M302.098 225.071H289.955V176.37H271.655V164.184H320.356V176.37H302.098V225.071Z" fill="#1B2021"/>
<path d="M220.459 218.226C217.629 220.66 214.458 222.528 210.948 223.83C207.439 225.132 203.801 225.783 200.036 225.783C197.149 225.783 194.361 225.401 191.672 224.637C189.011 223.901 186.506 222.854 184.157 221.495C181.836 220.108 179.713 218.452 177.788 216.527C175.863 214.602 174.207 212.48 172.82 210.158C171.461 207.809 170.4 205.304 169.636 202.643C168.9 199.954 168.532 197.166 168.532 194.279C168.532 191.391 168.9 188.603 169.636 185.914C170.4 183.225 171.461 180.72 172.82 178.399C174.207 176.049 175.863 173.912 177.788 171.988C179.713 170.063 181.836 168.421 184.157 167.062C186.506 165.675 189.011 164.614 191.672 163.878C194.361 163.114 197.149 162.731 200.036 162.731C203.801 162.731 207.439 163.382 210.948 164.685C214.458 165.958 217.629 167.827 220.459 170.289L214.006 180.904C212.222 178.979 210.113 177.507 207.679 176.488C205.245 175.441 202.697 174.917 200.036 174.917C197.347 174.917 194.828 175.427 192.479 176.446C190.129 177.465 188.077 178.852 186.322 180.607C184.567 182.333 183.18 184.386 182.161 186.763C181.142 189.113 180.633 191.618 180.633 194.279C180.633 196.939 181.142 199.445 182.161 201.794C183.18 204.115 184.567 206.153 186.322 207.908C188.077 209.663 190.129 211.05 192.479 212.069C194.828 213.088 197.347 213.598 200.036 213.598C202.697 213.598 205.245 213.088 207.679 212.069C210.113 211.022 212.222 209.536 214.006 207.611L220.459 218.226Z" fill="#1B2021"/>
<path d="M424.735 194.024C424.735 196.826 424.367 199.529 423.631 202.134C422.923 204.709 421.904 207.13 420.574 209.394C419.244 211.63 417.658 213.683 415.819 215.551C413.979 217.391 411.926 218.976 409.662 220.306C407.397 221.637 404.963 222.67 402.359 223.406C399.783 224.113 397.094 224.467 394.292 224.467H375.949V163.581H394.292C397.094 163.581 399.783 163.949 402.359 164.685C404.963 165.392 407.397 166.411 409.662 167.742C411.926 169.072 413.979 170.671 415.819 172.539C417.658 174.379 419.244 176.432 420.574 178.696C421.904 180.932 422.923 183.352 423.631 185.957C424.367 188.532 424.735 191.222 424.735 194.024ZM412.549 194.024C412.549 191.505 412.068 189.141 411.106 186.933C410.171 184.725 408.869 182.8 407.199 181.159C405.558 179.489 403.619 178.172 401.382 177.21C399.174 176.248 396.811 175.766 394.292 175.766H388.22V212.281H394.292C396.811 212.281 399.174 211.814 401.382 210.88C403.619 209.918 405.558 208.616 407.199 206.974C408.869 205.304 410.171 203.365 411.106 201.157C412.068 198.921 412.549 196.543 412.549 194.024Z" fill="#1B2021"/>
<path d="M342.394 145.299L343.894 145.123L343.718 143.624C342.443 132.736 337.361 122.65 329.372 115.145C321.382 107.639 310.998 103.198 300.052 102.605L298.545 102.524L298.463 104.031L298.351 106.089L298.27 107.597L299.777 107.678C309.527 108.207 318.777 112.162 325.893 118.848C333.01 125.533 337.536 134.517 338.672 144.215L338.848 145.714L340.347 145.539L342.394 145.299Z" fill="#1B2021" stroke="#1B2021" stroke-width="3.01933"/>
</svg>
