<svg width="603" height="370" viewBox="0 0 603 370" fill="none" xmlns="http://www.w3.org/2000/svg">
<rect width="602.616" height="369.345" fill="#28E0B5"/>
<path d="M133.948 184.002C133.948 184.002 160.473 184.002 165.233 184.002C169.992 184.002 191.941 223.724 196.166 223.724C200.392 223.724 217.582 157.786 223.134 157.786C228.686 157.786 246.929 241.202 253.275 241.202C259.62 241.202 271.518 92.6423 279.45 92.6423C287.381 92.6423 300.865 276.157 308.004 276.157C315.142 276.157 325.454 144.281 333.385 144.281C341.317 144.281 351.628 249.146 357.974 249.146C364.319 249.146 374.63 157.786 380.183 157.786C385.735 157.786 396.046 219.752 401.598 219.752C407.15 219.752 415.082 184.002 419.841 184.002C424.6 184.002 456.131 184.002 456.131 184.002" stroke="#1B2021" stroke-width="14.752"/>
</svg>
