<svg width="603" height="370" viewBox="0 0 603 370" fill="none" xmlns="http://www.w3.org/2000/svg">
<rect width="602.355" height="369.185" fill="#E8E9F3"/>
<path d="M219.435 216.217C211.551 216.217 205.522 214.188 201.348 210.13C197.232 206.014 195.174 200.42 195.174 193.348V167.956C195.174 166.217 194.797 164.739 194.043 163.522C193.29 162.304 192.246 161.522 190.913 161.174C189.174 160.768 188.304 160.13 188.304 159.261C188.304 158.913 188.536 158.652 189 158.478C189.464 158.246 190.043 158.13 190.739 158.13C191.841 158.13 193.493 158.188 195.696 158.304C198.13 158.42 199.899 158.478 201 158.478C202.101 158.478 203.87 158.42 206.304 158.304L211.174 158.217C212.739 158.217 213.522 158.594 213.522 159.348C213.522 159.754 213.319 160.072 212.913 160.304C212.565 160.536 212.072 160.768 211.435 161C210.855 161.232 210.362 161.435 209.957 161.609C209.029 162.014 208.217 162.797 207.522 163.956C206.826 165.058 206.478 166.449 206.478 168.13V191.522C206.478 197.493 207.899 202.014 210.739 205.087C213.638 208.159 217.377 209.696 221.957 209.696C227.406 209.696 231.464 207.986 234.13 204.565C236.855 201.145 238.217 196.13 238.217 189.522C238.217 181.812 238.159 176.043 238.044 172.217C237.928 168.855 237.551 166.362 236.913 164.739C236.333 163.116 235.29 161.985 233.783 161.348C233.493 161.232 233.058 161.087 232.478 160.913C231.899 160.681 231.435 160.449 231.087 160.217C230.739 159.985 230.565 159.725 230.565 159.435C230.565 158.623 231.406 158.217 233.087 158.217L237.609 158.304C238.304 158.362 239.406 158.391 240.913 158.391C241.957 158.391 243.232 158.333 244.739 158.217L248.478 158.13C250.044 158.13 250.826 158.507 250.826 159.261C250.826 160.014 249.957 160.623 248.217 161.087C246.478 161.551 245.232 162.362 244.478 163.522C243.783 164.681 243.377 166.304 243.261 168.391C242.971 174.594 242.768 180.71 242.652 186.739C242.652 189.29 242.623 191.232 242.565 192.565C242.507 197.087 241.435 201.174 239.348 204.826C237.319 208.42 234.536 211.232 231 213.261C227.522 215.232 223.667 216.217 219.435 216.217ZM286.756 216.217C280.958 216.217 275.596 215 270.669 212.565C265.741 210.13 261.799 206.739 258.842 202.391C255.944 197.985 254.495 192.942 254.495 187.261C254.495 181.87 255.973 176.884 258.929 172.304C261.886 167.725 266.002 164.072 271.277 161.348C276.611 158.623 282.582 157.261 289.19 157.261C291.915 157.261 294.495 157.493 296.929 157.956C299.422 158.42 302.089 159.116 304.929 160.043C306.205 160.449 306.929 161.319 307.103 162.652C307.567 166.362 307.799 169.783 307.799 172.913C307.857 173.377 307.712 173.754 307.364 174.043C307.074 174.275 306.727 174.391 306.321 174.391C305.915 174.391 305.538 174.275 305.19 174.043C304.9 173.812 304.698 173.464 304.582 173C304.002 170.971 303.393 169.348 302.756 168.13C302.176 166.855 301.335 165.754 300.234 164.826C297.335 162.391 293.277 161.174 288.06 161.174C284.002 161.174 280.379 162.275 277.19 164.478C274.06 166.681 271.625 169.609 269.886 173.261C268.147 176.913 267.277 180.826 267.277 185C267.277 190.043 268.089 194.652 269.712 198.826C271.393 202.942 273.828 206.217 277.016 208.652C280.205 211.087 283.973 212.304 288.321 212.304C292.495 212.304 295.944 211.406 298.669 209.609C301.393 207.812 303.683 205.029 305.538 201.261C305.77 200.855 306.031 200.536 306.321 200.304C306.669 200.072 307.016 199.957 307.364 199.957C307.712 199.957 308.002 200.072 308.234 200.304C308.524 200.536 308.669 200.884 308.669 201.348C308.669 202.333 308.466 203.725 308.06 205.522C307.712 207.319 307.248 209.087 306.669 210.826C306.379 211.522 306.06 212.043 305.712 212.391C305.364 212.681 304.842 212.971 304.147 213.261C302.002 214.188 299.422 214.913 296.408 215.435C293.393 215.957 290.176 216.217 286.756 216.217ZM331.798 216.304C326.638 216.304 322.232 215.029 318.58 212.478C317.827 211.899 317.276 211.232 316.928 210.478C316.059 207.87 315.682 204.043 315.798 199C315.798 198.246 316.348 197.87 317.45 197.87C317.914 197.87 318.261 197.957 318.493 198.13C318.783 198.246 318.986 198.507 319.102 198.913C320.377 203.261 322.232 206.652 324.667 209.087C327.102 211.522 329.856 212.739 332.928 212.739C335.653 212.739 337.827 211.841 339.45 210.043C341.073 208.246 341.885 206.072 341.885 203.522C341.885 201.551 341.537 199.928 340.841 198.652C340.146 197.319 339.131 196.159 337.798 195.174C336.464 194.13 334.551 192.884 332.059 191.435C328.696 189.464 326.088 187.812 324.232 186.478C322.377 185.145 320.754 183.435 319.363 181.348C318.03 179.203 317.363 176.652 317.363 173.696C317.363 170.507 318.174 167.667 319.798 165.174C321.479 162.681 323.798 160.739 326.754 159.348C329.711 157.956 333.131 157.261 337.015 157.261C338.986 157.261 340.899 157.464 342.754 157.87C344.609 158.275 346.175 158.768 347.45 159.348C348.03 159.58 348.464 159.87 348.754 160.217C349.102 160.565 349.392 161.116 349.624 161.87C350.493 164.884 350.928 168.101 350.928 171.522C350.928 172.217 350.435 172.565 349.45 172.565C348.928 172.565 348.435 172.449 347.972 172.217C347.508 171.985 347.218 171.667 347.102 171.261C344.957 164.42 341.276 161 336.059 161C333.334 161 331.189 161.725 329.624 163.174C328.059 164.565 327.276 166.681 327.276 169.522C327.276 171.551 328.203 173.406 330.059 175.087C331.972 176.768 335.015 178.855 339.189 181.348C343.653 184.072 346.899 186.739 348.928 189.348C350.957 191.899 351.972 195.087 351.972 198.913C351.972 204.536 350.146 208.855 346.493 211.87C342.899 214.826 338.001 216.304 331.798 216.304ZM390.526 216.217C384.729 216.217 379.367 215 374.439 212.565C369.511 210.13 365.569 206.739 362.613 202.391C359.714 197.985 358.265 192.942 358.265 187.261C358.265 181.87 359.743 176.884 362.7 172.304C365.656 167.725 369.772 164.072 375.048 161.348C380.381 158.623 386.352 157.261 392.961 157.261C395.685 157.261 398.265 157.493 400.7 157.956C403.193 158.42 405.859 159.116 408.7 160.043C409.975 160.449 410.7 161.319 410.874 162.652C411.338 166.362 411.569 169.783 411.569 172.913C411.627 173.377 411.483 173.754 411.135 174.043C410.845 174.275 410.497 174.391 410.091 174.391C409.685 174.391 409.309 174.275 408.961 174.043C408.671 173.812 408.468 173.464 408.352 173C407.772 170.971 407.164 169.348 406.526 168.13C405.946 166.855 405.106 165.754 404.004 164.826C401.106 162.391 397.048 161.174 391.83 161.174C387.772 161.174 384.149 162.275 380.961 164.478C377.83 166.681 375.396 169.609 373.656 173.261C371.917 176.913 371.048 180.826 371.048 185C371.048 190.043 371.859 194.652 373.482 198.826C375.164 202.942 377.598 206.217 380.787 208.652C383.975 211.087 387.743 212.304 392.091 212.304C396.265 212.304 399.714 211.406 402.439 209.609C405.164 207.812 407.454 205.029 409.309 201.261C409.54 200.855 409.801 200.536 410.091 200.304C410.439 200.072 410.787 199.957 411.135 199.957C411.483 199.957 411.772 200.072 412.004 200.304C412.294 200.536 412.439 200.884 412.439 201.348C412.439 202.333 412.236 203.725 411.83 205.522C411.483 207.319 411.019 209.087 410.439 210.826C410.149 211.522 409.83 212.043 409.483 212.391C409.135 212.681 408.613 212.971 407.917 213.261C405.772 214.188 403.193 214.913 400.178 215.435C397.164 215.957 393.946 216.217 390.526 216.217Z" fill="#0A3670"/>
</svg>
