<svg xmlns="http://www.w3.org/2000/svg" width="100" height="90" viewBox="0 0 100 90" fill="none" stroke="#4b5140" stroke-width="1.7" stroke-linecap="round" stroke-linejoin="round"><circle cx="23" cy="64" r="16" fill="#f6f3eb"/><circle cx="78" cy="64" r="16" fill="#f6f3eb"/><path d="M23 64l15 -26 16 27 -31 -1 40 -24 15 24M54 65l10 -34 -5 -1M32 37h14M64 31l8 -1 2 5" stroke="#707e59" stroke-width="2.3"/><path d="M23 48v32m-16 -16h32m39 -16v32m-16 -16h32" stroke="#adb599" stroke-width=".8"/><path d="M49 44l-12 15 15 9M50 46l10 13 -6 17" stroke-width="6" stroke="#4b5140"/><path d="M41 28l13 -8 12 7 -16 18 -13 -5Z" fill="#c3a16b"/><path d="M61 27l-3 14 12 -5"/><path d="M61 19q-1 -10 6 -11q8 1 6 8l-4 7Z" fill="#dfc39c"/><path d="M60 13q0 -9 8 -8l8 7Z" fill="#9ca780"/></svg>
